<?xml version="1.0" standalone="no"?>
<!DOCTYPE svg PUBLIC "-//W3C//DTD SVG 20010904//EN"
 "http://www.w3.org/TR/2001/REC-SVG-20010904/DTD/svg10.dtd">
<svg version="1.0" xmlns="http://www.w3.org/2000/svg"
 width="700.000000pt" height="700.000000pt" viewBox="0 0 700.000000 700.000000"
 preserveAspectRatio="xMidYMid meet">
<metadata>
Created by potrace 1.14, written by Peter Selinger 2001-2017
</metadata>
<g transform="translate(0.000000,700.000000) scale(0.100000,-0.100000)"
fill="#000000" stroke="none">
<path d="M4547 5584 c-1 -1 -35 -5 -75 -8 -236 -22 -497 -161 -662 -352 -106
-123 -190 -294 -231 -469 -17 -76 -19 -317 -3 -409 46 -268 180 -492 389 -651
140 -107 258 -160 450 -201 11 -2 52 -6 90 -9 85 -6 1190 -7 1225 -1 14 2 48
8 75 12 69 10 68 10 148 34 63 19 164 66 222 103 106 67 235 186 290 268 16
24 33 46 36 49 4 3 27 46 52 95 73 147 106 283 111 456 8 304 -93 567 -294
770 -158 160 -331 254 -549 295 -74 15 -171 17 -679 18 -327 1 -594 1 -595 0z
m490 -579 c123 -306 214 -530 224 -550 44 -96 175 -435 168 -437 -5 -2 -57 -1
-116 2 l-107 5 -52 140 -51 139 -261 1 -261 0 -53 -142 -53 -143 -107 0 c-60
0 -108 2 -108 5 0 5 57 151 70 180 10 23 282 696 342 849 21 54 41 103 44 108
3 5 62 7 131 6 l126 -3 64 -160z m773 -410 l0 -575 -99 0 c-70 0 -100 4 -103
13 -3 10 -2 1080 1 1125 1 9 28 12 101 12 l100 0 0 -575z"/>
<path d="M4766 4807 c-38 -100 -81 -217 -97 -259 l-28 -78 200 0 c157 0 200 3
196 13 -3 6 -46 120 -97 252 -51 132 -95 243 -99 247 -4 4 -37 -74 -75 -175z"/>
<path d="M370 3355 l0 -1805 314 0 c290 0 314 1 318 18 2 9 3 64 2 122 -2 91
-8 122 -42 235 -23 72 -47 151 -55 178 -8 26 -12 49 -8 51 4 3 39 5 79 5 70 0
73 -1 84 -27 92 -225 197 -363 361 -470 163 -106 344 -154 587 -156 85 0 171
2 190 6 19 3 55 9 80 14 119 20 327 115 416 191 102 85 200 197 251 286 81
142 149 327 168 456 2 14 6 37 9 51 3 13 9 61 12 105 65 778 -316 1359 -946
1440 -67 9 -259 9 -320 1 -166 -24 -289 -62 -397 -122 -68 -38 -164 -112 -199
-154 -12 -14 -32 -36 -44 -50 -54 -62 -136 -207 -168 -299 -10 -30 -12 -30
-83 -30 -40 0 -76 2 -80 5 -4 2 1 30 11 62 9 31 35 113 55 182 l38 125 1 693
1 692 -317 0 -318 0 0 -1805z m1536 151 c320 -33 531 -221 590 -526 14 -74 13
-324 -2 -395 -52 -247 -166 -391 -377 -475 -106 -42 -219 -58 -377 -54 -154 4
-159 4 -264 33 -229 63 -383 217 -441 440 -46 180 -39 406 19 565 112 309 417
456 852 412z"/>
</g>
</svg>
